<?xml version="1.0" encoding="utf-8"?>
<!-- Generator: Adobe Illustrator 18.0.0, SVG Export Plug-In . SVG Version: 6.00 Build 0)  -->
<!DOCTYPE svg PUBLIC "-//W3C//DTD SVG 1.1//EN" "http://www.w3.org/Graphics/SVG/1.1/DTD/svg11.dtd">
<svg version="1.1" id="Layer_1" xmlns="http://www.w3.org/2000/svg" xmlns:xlink="http://www.w3.org/1999/xlink" x="0px" y="0px"
	 viewBox="0 0 199 233" enable-background="new 0 0 199 233" xml:space="preserve">
<g id="XMLID_1_">
	<g>
	</g>
	<g>
	</g>
</g>
<g>
	<text transform="matrix(1 0 0 1 71.8724 110.7876)" font-family="'MyriadPro-Regular'" font-size="30">91%</text>
</g>
<text transform="matrix(1 0 0 1 12.5961 225)" font-family="'MyriadPro-Regular'" font-size="24">PC/Laptop Usage</text>
<path fill="none" stroke="#FF0000" stroke-miterlimit="10" d="M100.5,9"/>
<path fill="none" stroke="#FF0000" stroke-miterlimit="10" d="M100.5,46"/>
<path fill="none" stroke="#FF0000" stroke-miterlimit="10" d="M104.5,48"/>
<path fill="none" stroke="#FF0000" stroke-miterlimit="10" d="M106.5,53.8"/>
<path fill="#FFFFFF" d="M118.3,5.3"/>
<g id="XMLID_4_">
	<g>
		<path fill="#FBB03B" d="M108.5,9c46.7,4.7,83.1,44.1,83.1,92c0,51.1-41.4,92.5-92.5,92.5S6.6,152.1,6.6,101
			c0-26.4,11.1-50.3,28.9-67.2l23.7,28.6c-9.3,9.8-15,23.2-15,37.8c0,30.4,24.6,55,55,55c30.4,0,55-24.6,55-55
			c0-27.2-19.7-49.8-45.6-54.2V9z"/>
		<path fill="#FFFFFF" d="M108.5,46v4.5l-4-3.5v-1.5C105.8,45.6,107.2,45.8,108.5,46z"/>
		<path fill="#FFFFFF" d="M108.5,9V46c-1.3-0.2-2.6-0.4-4-0.5V8.6C105.8,8.7,107.2,8.8,108.5,9z"/>
		<path fill="#FFFFFF" d="M108.5,8.2V9c-1.3-0.1-2.7-0.2-4-0.3V8L108.5,8.2z"/>
		<path fill="#F7931E" d="M104.5,8.6v36.8c-1.8-0.2-3.5-0.3-5.4-0.3c-14.3,0-27.3,5.5-37.1,14.4L38.5,31.1
			C54.7,17,75.9,8.5,99.1,8.5C100.9,8.5,102.7,8.5,104.5,8.6z"/>
		<path fill="#FFFFFF" d="M62,59.6l2.9,3.5L59.6,63l-0.4-0.5C60.1,61.5,61,60.5,62,59.6z"/>
		<path fill="#FFFFFF" d="M38.5,31.1L62,59.6c-1,0.9-2,1.8-2.9,2.8L35.5,33.8C36.5,32.9,37.5,32,38.5,31.1z"/>
		<path fill="#FFFFFF" d="M37.9,30.5l0.5,0.7c-1,0.9-2,1.8-3,2.7l-0.8-0.9L37.9,30.5z"/>
	</g>
	<g>
	</g>
</g>
</svg>
